<svg width="220" height="218" viewBox="0 0 360 264" fill="none" xmlns="http://www.w3.org/2000/svg">
<path d="M250.312 78.375C250.312 79.5094 249.047 80.4375 247.5 80.4375H227.812C226.266 80.4375 225 79.5094 225 78.375V66H135V78.375C135 79.5094 133.734 80.4375 132.188 80.4375H112.5C110.953 80.4375 109.688 79.5094 109.688 78.375V66H64.6875V101.063H295.312V66H250.312V78.375Z" fill="black" fill-opacity="0.15"/>
<path d="M309.375 47.4375H250.312V30.9375C250.312 29.8031 249.047 28.875 247.5 28.875H227.812C226.266 28.875 225 29.8031 225 30.9375V47.4375H135V30.9375C135 29.8031 133.734 28.875 132.188 28.875H112.5C110.953 28.875 109.688 29.8031 109.688 30.9375V47.4375H50.625C44.4023 47.4375 39.375 51.1242 39.375 55.6875V226.875C39.375 231.438 44.4023 235.125 50.625 235.125H309.375C315.598 235.125 320.625 231.438 320.625 226.875V55.6875C320.625 51.1242 315.598 47.4375 309.375 47.4375ZM295.312 216.562H64.6875V118.594H295.312V216.562ZM295.312 101.062H64.6875V66H109.688V78.375C109.688 79.5094 110.953 80.4375 112.5 80.4375H132.188C133.734 80.4375 135 79.5094 135 78.375V66H225V78.375C225 79.5094 226.266 80.4375 227.812 80.4375H247.5C249.047 80.4375 250.312 79.5094 250.312 78.375V66H295.312V101.062Z" fill="black"/>
</svg>
