<svg width="48" height="48" viewBox="0 0 48 48" fill="none" xmlns="http://www.w3.org/2000/svg">
<path d="M24.0002 14.386C18.6799 14.386 14.3862 18.6797 14.3862 24C14.3862 29.3203 18.6799 33.6141 24.0002 33.6141C29.3205 33.6141 33.6143 29.3203 33.6143 24C33.6143 18.6797 29.3205 14.386 24.0002 14.386ZM24.0002 30.2485C20.5596 30.2485 17.7518 27.4407 17.7518 24C17.7518 20.5594 20.5596 17.7516 24.0002 17.7516C27.4408 17.7516 30.2487 20.5594 30.2487 24C30.2487 27.4407 27.4408 30.2485 24.0002 30.2485ZM34.008 11.7516C32.7658 11.7516 31.7627 12.7547 31.7627 13.9969C31.7627 15.2391 32.7658 16.2422 34.008 16.2422C35.2502 16.2422 36.2533 15.2438 36.2533 13.9969C36.2537 13.7019 36.1959 13.4098 36.0832 13.1372C35.9705 12.8646 35.8051 12.617 35.5965 12.4084C35.388 12.1998 35.1403 12.0345 34.8677 11.9217C34.5951 11.809 34.303 11.7512 34.008 11.7516ZM42.7408 24C42.7408 21.4125 42.7643 18.8485 42.619 16.2657C42.4737 13.2657 41.7893 10.6032 39.5955 8.4094C37.3971 6.21096 34.7393 5.53128 31.7393 5.38596C29.1518 5.24065 26.5877 5.26409 24.0049 5.26409C21.4174 5.26409 18.8533 5.24065 16.2705 5.38596C13.2705 5.53128 10.608 6.21565 8.41428 8.4094C6.21585 10.6078 5.53616 13.2657 5.39085 16.2657C5.24553 18.8532 5.26897 21.4172 5.26897 24C5.26897 26.5828 5.24553 29.1516 5.39085 31.7344C5.53616 34.7344 6.22053 37.3969 8.41428 39.5907C10.6127 41.7891 13.2705 42.4688 16.2705 42.6141C18.858 42.7594 21.4221 42.736 24.0049 42.736C26.5924 42.736 29.1565 42.7594 31.7393 42.6141C34.7393 42.4688 37.4018 41.7844 39.5955 39.5907C41.794 37.3922 42.4737 34.7344 42.619 31.7344C42.769 29.1516 42.7408 26.5875 42.7408 24ZM38.6158 35.0532C38.2737 35.9063 37.8612 36.5438 37.2002 37.2C36.5393 37.861 35.9065 38.2735 35.0533 38.6157C32.5877 39.5953 26.733 39.375 24.0002 39.375C21.2674 39.375 15.408 39.5953 12.9424 38.6203C12.0893 38.2782 11.4518 37.8657 10.7955 37.2047C10.1346 36.5438 9.7221 35.911 9.37991 35.0578C8.40491 32.5875 8.62522 26.7328 8.62522 24C8.62522 21.2672 8.40491 15.4078 9.37991 12.9422C9.7221 12.0891 10.1346 11.4516 10.7955 10.7953C11.4565 10.1391 12.0893 9.7219 12.9424 9.37971C15.408 8.40471 21.2674 8.62503 24.0002 8.62503C26.733 8.62503 32.5924 8.40471 35.058 9.37971C35.9112 9.7219 36.5487 10.1344 37.2049 10.7953C37.8658 11.4563 38.2783 12.0891 38.6205 12.9422C39.5955 15.4078 39.3752 21.2672 39.3752 24C39.3752 26.7328 39.5955 32.5875 38.6158 35.0532Z" fill="black"/>
</svg>
