<svg width="40" height="40" viewBox="0 0 40 40" fill="none" xmlns="http://www.w3.org/2000/svg">
<path d="M33.3828 11.293C32.6474 9.59719 31.5871 8.0618 30.2617 6.77344C28.932 5.47341 27.3644 4.44161 25.6445 3.73438C23.8555 2.99219 21.957 2.61719 20 2.61719C18.043 2.61719 16.1445 2.99219 14.3555 3.73047C12.625 4.44531 11.0742 5.46875 9.73828 6.76953C8.41376 8.05862 7.35358 9.59383 6.61719 11.2891C5.85547 13.0469 5.46875 14.9141 5.46875 16.8359C5.46875 19.5938 6.12891 22.3398 7.42578 24.9883C8.46875 27.1172 9.92578 29.1914 11.7617 31.1641C14.8984 34.5312 18.1875 36.5898 19.1211 37.1406C19.3861 37.2971 19.6883 37.3794 19.9961 37.3789C20.3008 37.3789 20.6016 37.3008 20.8711 37.1406C21.8047 36.5898 25.0938 34.5312 28.2305 31.1641C30.0664 29.1953 31.5234 27.1172 32.5664 24.9883C33.8711 22.3438 34.5312 19.6016 34.5312 16.8398C34.5312 14.918 34.1445 13.0508 33.3828 11.293ZM20 34.3828C17.4258 32.7461 8.28125 26.2656 8.28125 16.8398C8.28125 13.7969 9.49609 10.9375 11.7031 8.78125C13.918 6.62109 16.8633 5.42969 20 5.42969C23.1367 5.42969 26.082 6.62109 28.2969 8.78516C30.5039 10.9375 31.7188 13.7969 31.7188 16.8398C31.7188 26.2656 22.5742 32.7461 20 34.3828ZM20 10.2734C16.2031 10.2734 13.125 13.3516 13.125 17.1484C13.125 20.9453 16.2031 24.0234 20 24.0234C23.7969 24.0234 26.875 20.9453 26.875 17.1484C26.875 13.3516 23.7969 10.2734 20 10.2734ZM23.0938 20.2422C22.688 20.6491 22.2057 20.9718 21.6748 21.1917C21.1439 21.4116 20.5747 21.5243 20 21.5234C18.832 21.5234 17.7344 21.0664 16.9062 20.2422C16.4993 19.8364 16.1766 19.3542 15.9567 18.8232C15.7368 18.2923 15.6241 17.7231 15.625 17.1484C15.625 15.9805 16.082 14.8828 16.9062 14.0547C17.7344 13.2266 18.832 12.7734 20 12.7734C21.168 12.7734 22.2656 13.2266 23.0938 14.0547C23.9219 14.8828 24.375 15.9805 24.375 17.1484C24.375 18.3164 23.9219 19.4141 23.0938 20.2422Z" fill="#575757"/>
</svg>
