<svg width="48" height="48" viewBox="0 0 48 48" fill="none" xmlns="http://www.w3.org/2000/svg">
<path d="M33.4455 28.1203C32.9346 27.8578 30.3893 26.6109 29.9158 26.4422C29.4424 26.2641 29.0955 26.1797 28.7533 26.7047C28.4064 27.225 27.4221 28.3828 27.1127 28.7344C26.8127 29.0813 26.508 29.1234 25.9971 28.8656C22.9596 27.3469 20.9674 26.1563 18.9658 22.7203C18.4361 21.8063 19.4955 21.8719 20.4846 19.8984C20.6533 19.5516 20.5689 19.2563 20.4377 18.9938C20.3064 18.7313 19.2752 16.1906 18.8439 15.1547C18.4268 14.1469 17.9955 14.2875 17.6814 14.2687C17.3814 14.25 17.0393 14.25 16.6924 14.25C16.3455 14.25 15.7877 14.3813 15.3143 14.8922C14.8408 15.4125 13.5049 16.6641 13.5049 19.2047C13.5049 21.7453 15.3564 24.2063 15.6096 24.5531C15.8721 24.9 19.2518 30.1125 24.4408 32.3578C27.7221 33.7734 29.0064 33.8953 30.6471 33.6516C31.6455 33.5016 33.7033 32.4047 34.1299 31.1906C34.5564 29.9813 34.5564 28.9453 34.4299 28.7297C34.3033 28.5 33.9564 28.3688 33.4455 28.1203Z" fill="black"/>
<path d="M43.3685 15.8625C42.3092 13.3453 40.7904 11.0859 38.8545 9.14531C36.9185 7.20938 34.6592 5.68594 32.1373 4.63125C29.5592 3.54844 26.8217 3 23.9998 3H23.906C21.0654 3.01406 18.3138 3.57656 15.7263 4.68281C13.2279 5.75156 10.9873 7.27031 9.07009 9.20625C7.1529 11.1422 5.64822 13.3922 4.60759 15.9C3.52947 18.4969 2.98572 21.2578 2.99978 24.0984C3.01384 27.3516 3.79197 30.5813 5.24978 33.4688V40.5938C5.24978 41.7844 6.2154 42.75 7.40603 42.75H14.5357C17.4232 44.2078 20.6529 44.9859 23.906 45H24.0045C26.8123 45 29.5357 44.4563 32.0998 43.3922C34.6076 42.3469 36.8623 40.8469 38.7935 38.9297C40.7295 37.0125 42.2529 34.7719 43.317 32.2734C44.4232 29.6859 44.9857 26.9344 44.9998 24.0938C45.0138 21.2391 44.4607 18.4687 43.3685 15.8625ZM36.2857 36.3938C32.9998 39.6469 28.6404 41.4375 23.9998 41.4375H23.9201C21.0935 41.4234 18.2857 40.7203 15.806 39.3984L15.4123 39.1875H8.81228V32.5875L8.60134 32.1937C7.27947 29.7141 6.57634 26.9063 6.56228 24.0797C6.54353 19.4063 8.32947 15.0187 11.606 11.7141C14.8779 8.40937 19.2513 6.58125 23.9248 6.5625H24.0045C26.3482 6.5625 28.6217 7.01719 30.7638 7.91719C32.8545 8.79375 34.7295 10.0547 36.342 11.6672C37.9498 13.275 39.2154 15.1547 40.092 17.2453C41.0013 19.4109 41.456 21.7078 41.4467 24.0797C41.4185 28.7484 39.5857 33.1219 36.2857 36.3938Z" fill="black"/>
</svg>
